<svg
 xmlns="http://www.w3.org/2000/svg"
 xmlns:xlink="http://www.w3.org/1999/xlink">
<path fill-rule="evenodd"  fill="rgb(255, 255, 255)"
 d="M38.313,18.420 C38.247,18.428 38.190,18.436 38.124,18.436 C37.590,18.436 37.121,18.058 37.031,17.515 C36.381,13.684 34.573,10.189 31.794,7.410 C29.016,4.639 25.522,2.822 21.691,2.172 C21.083,2.065 20.680,1.498 20.779,0.889 C20.886,0.289 21.453,-0.122 22.053,-0.015 C26.344,0.717 30.249,2.740 33.356,5.848 C36.463,8.956 38.486,12.861 39.217,17.153 C39.324,17.754 38.913,18.329 38.313,18.420 ZM21.749,7.048 C24.355,7.492 26.730,8.726 28.613,10.608 C30.495,12.491 31.728,14.867 32.172,17.474 C32.271,18.083 31.868,18.658 31.260,18.757 C31.194,18.765 31.137,18.773 31.071,18.773 C30.536,18.773 30.068,18.395 29.978,17.852 C29.608,15.698 28.596,13.741 27.035,12.179 C25.473,10.617 23.516,9.597 21.362,9.235 C20.754,9.137 20.360,8.553 20.466,7.953 C20.573,7.352 21.140,6.949 21.749,7.048 ZM14.383,14.374 C13.775,14.991 13.150,15.632 12.476,16.249 C12.977,17.359 13.668,18.453 14.696,19.752 C16.816,22.359 19.028,24.373 21.461,25.919 C21.699,26.067 21.979,26.207 22.275,26.355 C22.480,26.461 22.694,26.568 22.908,26.683 L25.506,24.093 C26.336,23.263 27.306,22.827 28.317,22.827 C29.336,22.827 30.298,23.271 31.095,24.102 L35.609,28.632 C36.439,29.455 36.874,30.433 36.874,31.452 C36.874,32.464 36.447,33.451 35.633,34.298 C35.280,34.668 34.918,35.021 34.564,35.358 C34.047,35.860 33.553,36.328 33.126,36.847 C33.118,36.863 33.101,36.871 33.093,36.887 C31.844,38.244 30.249,38.927 28.350,38.927 C28.185,38.927 28.005,38.918 27.832,38.910 C25.012,38.729 22.489,37.669 20.598,36.773 C15.649,34.380 11.317,30.984 7.716,26.683 C4.749,23.115 2.759,19.785 1.428,16.192 C0.885,14.728 0.178,12.491 0.375,10.090 C0.507,8.602 1.107,7.320 2.159,6.267 L4.954,3.447 C4.962,3.438 4.962,3.438 4.971,3.430 C5.793,2.641 6.763,2.221 7.766,2.221 C8.769,2.221 9.722,2.641 10.519,3.430 C11.054,3.924 11.572,4.450 12.065,4.960 C12.312,5.223 12.575,5.486 12.829,5.741 L15.074,7.985 C16.800,9.712 16.800,11.949 15.074,13.676 C14.843,13.906 14.613,14.144 14.383,14.374 ZM13.512,9.556 L11.268,7.311 C11.005,7.040 10.741,6.777 10.487,6.514 C9.985,5.996 9.508,5.510 9.007,5.042 C8.999,5.034 8.990,5.025 8.982,5.017 C8.719,4.754 8.300,4.441 7.782,4.441 C7.363,4.441 6.935,4.647 6.533,5.025 L3.729,7.829 C3.047,8.512 2.677,9.309 2.595,10.271 C2.472,11.776 2.751,13.371 3.516,15.419 C4.757,18.773 6.631,21.898 9.434,25.277 C12.829,29.331 16.915,32.530 21.568,34.783 C23.270,35.596 25.538,36.550 27.980,36.707 C28.103,36.715 28.235,36.715 28.358,36.715 C29.640,36.715 30.619,36.295 31.449,35.407 C31.959,34.807 32.501,34.273 33.035,33.763 C33.389,33.418 33.718,33.105 34.038,32.760 C34.877,31.889 34.877,31.025 34.030,30.186 L29.501,25.655 C29.492,25.648 29.492,25.648 29.484,25.639 C29.229,25.360 28.810,25.039 28.300,25.039 C27.783,25.039 27.339,25.376 27.059,25.655 L24.248,28.468 C24.108,28.608 23.681,29.035 22.998,29.035 C22.727,29.035 22.464,28.969 22.184,28.829 C22.152,28.813 22.119,28.788 22.086,28.772 C21.847,28.624 21.568,28.484 21.272,28.336 C20.943,28.172 20.598,27.999 20.261,27.785 C17.622,26.116 15.230,23.937 12.961,21.142 L12.953,21.133 C11.703,19.546 10.881,18.214 10.298,16.800 C10.289,16.775 10.281,16.751 10.273,16.726 C10.125,16.257 9.993,15.567 10.700,14.860 C10.709,14.843 10.725,14.835 10.741,14.818 C11.457,14.177 12.114,13.519 12.805,12.812 C13.043,12.582 13.273,12.344 13.512,12.105 C14.383,11.233 14.383,10.428 13.512,9.556 Z"/>
</svg>
